<?xml version="1.0" encoding="utf-8"?>
<!-- Generator: Adobe Illustrator 27.5.0, SVG Export Plug-In . SVG Version: 6.00 Build 0)  -->
<svg version="1.1" xmlns="http://www.w3.org/2000/svg" xmlns:xlink="http://www.w3.org/1999/xlink" x="0px" y="0px"
	 viewBox="0 0 750 500" style="enable-background:new 0 0 750 500;" xml:space="preserve">
<g id="BACKGROUND">
	<rect style="fill:#FFFFFF;" width="750" height="500"/>
</g>
<g id="OBJECTS">
	<g>
		<g>
			<rect x="532.13" y="72.316" style="fill:#94E5F2;" width="60.605" height="94.438"/>
			<rect x="597.064" y="72.316" style="fill:#94E5F2;" width="60.605" height="94.438"/>
			<rect x="532.13" y="172.149" style="fill:#94E5F2;" width="60.605" height="94.438"/>
			<rect x="597.064" y="172.149" style="fill:#94E5F2;" width="60.605" height="94.438"/>
		</g>
		<g>
			<rect x="291.592" y="72.316" style="fill:#94E5F2;" width="60.605" height="94.438"/>
			<rect x="356.526" y="72.316" style="fill:#94E5F2;" width="60.605" height="94.438"/>
			<rect x="291.592" y="172.149" style="fill:#94E5F2;" width="60.605" height="94.438"/>
			<rect x="356.526" y="172.149" style="fill:#94E5F2;" width="60.605" height="94.438"/>
		</g>
		<g>
			<rect x="51.053" y="72.316" style="fill:#94E5F2;" width="60.605" height="94.438"/>
			<rect x="115.988" y="72.316" style="fill:#94E5F2;" width="60.605" height="94.438"/>
			<rect x="51.053" y="172.149" style="fill:#94E5F2;" width="60.605" height="94.438"/>
			<rect x="115.988" y="172.149" style="fill:#94E5F2;" width="60.605" height="94.438"/>
		</g>
	</g>
	<ellipse style="fill:#B8EDF5;" cx="232.108" cy="411.555" rx="93.433" ry="3.797"/>
	<path style="fill:#B8EDF5;" d="M379.332,388.047c0,2.05-10.17,3.712-22.714,3.712c-12.545,0-22.714-1.662-22.714-3.712
		s10.17-3.712,22.714-3.712C369.163,384.335,379.332,385.997,379.332,388.047z"/>
	<ellipse style="fill:#B8EDF5;" cx="443.132" cy="411.555" rx="93.433" ry="3.797"/>
	<ellipse style="fill:#B8EDF5;" cx="124.58" cy="352.71" rx="93.433" ry="3.797"/>
	<ellipse style="fill:#B8EDF5;" cx="597.064" cy="352.992" rx="93.433" ry="3.797"/>
	<g>
		<rect x="629.831" y="231.174" style="fill:#2A577D;" width="17.797" height="23.74"/>
		<path style="fill:none;stroke:#9E88B4;stroke-width:2.5448;stroke-miterlimit:10;" d="M515.448,353.684l6.034-75.729
			c0.615-8.304,7.532-14.727,15.858-14.727h5.976c8.326,0,15.243,6.423,15.858,14.727l6.034,75.729"/>
		<path style="fill:none;stroke:#9E88B4;stroke-width:2.5448;stroke-miterlimit:10;" d="M633.528,353.684l6.034-75.729
			c0.615-8.304,7.532-14.727,15.858-14.727h5.976c8.327,0,15.243,6.423,15.858,14.727l6.034,75.729"/>
		<rect x="510.765" y="254.653" style="fill:#6E6E9B;" width="173.252" height="7.559"/>
		<g>
			<path style="fill:#EB4328;" d="M539.076,226.109c5.145-10.842,17.888-16.087,28.947-11.427
				c9.444,3.979,17.656,12.236,12.729,29.348c-2.85,9.899-10.104,21.806-10.104,21.806l-28.271,22.451
				c0,0-12.542-10.996-11.144-33.987C531.872,243.777,535.418,233.818,539.076,226.109z"/>
			<path style="fill:#FF9153;" d="M553.585,345.342c0,0-3.979-53.79,3.763-67.636c4.642-8.301,16.887-7.192,13.853,8.706
				l-13.657,57.087L553.585,345.342z"/>
			<path style="fill:#64270D;" d="M553.585,345.342c0,0,3.252,7.933,6.745,7.933c3.316,0-2.786-9.776-2.786-9.776
				S552.28,341.046,553.585,345.342z"/>
			<path style="fill:#64270D;" d="M569.378,341.266l-1.005,3.812c-0.242,0.92-0.031,1.895,0.573,2.629
				c1.964,2.384,6.44,7.407,8.327,6.137c2.36-1.588-4.123-9.496-4.123-9.496L569.378,341.266z"/>
			<path style="fill:#FF9153;" d="M549.63,292.236l30.476-0.671c2.444,3.184-11.08,50.95-11.08,50.95
				c1.357,1.147,2.727,1.88,4.123,1.833c0,0,35.055-54.756,27.665-66.641c-7.685-12.36-51.184-12.911-51.184-12.911V292.236z"/>
			<path style="fill:#91210E;" d="M568.827,291.631h8.273l3.007-0.066c0.012,0.015,0.017,0.049,0.028,0.066
				c0,0,22.763-11.477,21.18-14.341c-7.612-13.768-69.897-14.435-69.897-14.435l0.295,9.067
				c0.208,10.738,8.861,19.394,19.598,19.606l16.046,0.317C567.808,291.72,568.288,291.631,568.827,291.631z"/>
			<path style="fill:#FF9153;" d="M561.607,229.282c-0.167,3.937,1.697,5.732,5.841,8.982c7.247,5.682,23.995,15.842,30.735,16.389
				c6.999,0.568,21.044,0,21.044,0l0.973-5.171l-20.243-4.605c-5.509-1.759-15.652-17.175-23.935-22.833
				C570.048,217.962,561.915,222.051,561.607,229.282L561.607,229.282z"/>
			<path style="fill:#F86341;" d="M592.735,234.995c0,0-12.087-9.793-16.711-12.952c-5.976-4.082-14.109,0.008-14.416,7.238
				c-0.167,3.937,1.697,5.732,5.841,8.982c3.619,2.838,14.78,11.302,14.78,11.302L592.735,234.995z"/>
			<path style="fill:#313E4B;" d="M533.103,207.671c0.044-2.615,0.692-4.621,2.864-5.176c4.642-1.185,7.84-5.417,8.478-10.166
				c1.134-8.45,8.655-14.867,17.158-14.003c8.741,0.887,15.017,8.764,13.975,17.449c-0.567,4.722-0.103,9.426,1.273,13.823
				c0.413,1.319-0.165,2.934-1.093,4.641c-3.773,6.943-11.157,11.186-19.058,11.294c-2.091,0.029-4.139,0.027-6.153-0.029
				C540.878,225.235,532.942,217.342,533.103,207.671z"/>
			
				<line style="fill:none;stroke:#9E88B4;stroke-width:2.6414;stroke-miterlimit:10;" x1="555.18" y1="290.369" x2="555.18" y2="353.594"/>
			<polyline style="fill:none;stroke:#9E88B4;stroke-width:2.6414;stroke-miterlimit:10;" points="537.25,352.992 555.18,347.74 
				573.11,352.992 			"/>
			<path style="fill:#6E6E9B;" d="M576.839,292.883h-44.185c-2.161,0-3.913-1.752-3.913-3.913l0,0c0-2.161,1.752-3.913,3.913-3.913
				h44.185c2.161,0,3.913,1.752,3.913,3.913l0,0C580.752,291.131,579,292.883,576.839,292.883z"/>
			<path style="fill:#6E6E9B;" d="M561.425,263.367h-40.727c-3.783,0-6.849-3.067-6.849-6.849v-20.733
				c0-3.783,3.067-6.849,6.849-6.849h40.727c3.783,0,6.849,3.067,6.849,6.849v20.733
				C568.274,260.301,565.208,263.367,561.425,263.367z"/>
			<path style="fill:none;stroke:#9E88B4;stroke-width:2.6414;stroke-linecap:round;stroke-miterlimit:10;" d="M541.062,243.637
				v22.425c0,4.897,1.804,9.621,5.068,13.272l8.617,9.636"/>
		</g>
		<rect x="597.885" y="189.973" style="fill:#2F7196;" width="81.687" height="53.357"/>
		<polygon style="fill:#3C87A5;" points="619.228,250.632 635.522,250.107 638.729,254.653 619.228,254.653 		"/>
		<path style="fill:#FF9153;" d="M617.497,249.134l11.083-1.886c1.438-0.245,2.911-0.204,4.328,0.14
			c3.2,0.777,6.255,4.784,5.821,6.784l-7.607-1.848c-1.088-0.264-2.225-0.251-3.307,0.037l-8.587,2.292l-3.001-3.174
			L617.497,249.134z"/>
		<rect x="601.838" y="193.77" style="fill:#313E4B;" width="74.268" height="43.895"/>
		<rect x="616.227" y="212.977" style="fill:#FFFFFF;" width="31.4" height="19.056"/>
		<rect x="616.227" y="212.977" style="fill:#3C87A5;" width="31.4" height="1.717"/>
	</g>
	<g>
		<g>
			
				<ellipse transform="matrix(0.8435 -0.5372 0.5372 0.8435 -62.1716 174.1691)" style="fill:#59BB66;" cx="267.756" cy="193.759" rx="19.305" ry="12.019"/>
			<path style="fill:#59BB66;" d="M275.275,168.24c-11.483-2.282-19.64-9.927-18.219-17.076c1.42-7.149,11.881-11.095,23.364-8.814
				c11.483,2.282,19.64,9.927,18.22,17.076C297.219,166.575,286.758,170.521,275.275,168.24z"/>
			<path style="fill:#59BB66;" d="M197.767,182.287c-10.457-2.078-17.886-9.04-16.592-15.551c1.294-6.511,10.82-10.104,21.277-8.027
				c10.457,2.078,17.886,9.04,16.592,15.551C217.751,180.772,208.225,184.365,197.767,182.287z"/>
			
				<ellipse transform="matrix(0.8435 -0.5372 0.5372 0.8435 -41.2184 139.9069)" style="fill:#59BB66;" cx="219.443" cy="140.676" rx="14.059" ry="22.581"/>
			<path style="fill:#59BB66;" d="M236.862,119.731c2.078-10.457,9.04-17.886,15.551-16.592c6.511,1.294,10.104,10.82,8.027,21.277
				c-2.078,10.457-9.04,17.886-15.551,16.592C238.377,139.714,234.784,130.188,236.862,119.731z"/>
			
				<ellipse transform="matrix(0.928 -0.3726 0.3726 0.928 -61.5104 92.4302)" style="fill:#59BB66;" cx="208.373" cy="205.35" rx="14.139" ry="8.803"/>
			<g>
				<path style="fill:#4DA157;" d="M249.102,117.359c-1.464,4.753-2.465,9.692-3.082,14.642c-0.646,4.953-0.523,9.965-0.761,14.998
					l-1.03,30.149l-2.06,60.303l-1.929-0.074l2.548-60.268l1.274-30.136c0.278-5.005,0.196-10.079,0.892-15.107
					c0.669-5.019,1.711-9.966,3.246-14.811L249.102,117.359z"/>
			</g>
			<g>
				<path style="fill:#4DA157;" d="M280.713,157.305c-3.663-1.895-7.665-3.294-11.736-3.981c-2.052-0.313-4.1-0.52-6.059-0.047
					c-1.956,0.444-3.814,1.355-5.327,2.676c-0.759,0.656-1.439,1.402-2.023,2.216c-0.598,0.798-1.028,1.721-1.5,2.654
					c-0.889,1.871-1.696,3.79-2.364,5.764c-1.376,3.933-2.408,7.992-3.264,12.084c-1.701,8.194-2.648,16.541-3.258,24.902
					c-0.603,8.365-0.833,16.758-0.854,25.15l-1.906-0.009c0.101-8.429,0.411-16.86,1.097-25.27
					c0.693-8.406,1.725-16.803,3.522-25.071c0.905-4.13,1.988-8.231,3.428-12.226c0.699-2.003,1.543-3.961,2.477-5.878
					c0.484-0.937,0.957-1.927,1.63-2.813c0.65-0.888,1.403-1.699,2.242-2.41c1.673-1.431,3.715-2.41,5.859-2.875
					c1.073-0.237,2.179-0.318,3.274-0.268c1.089,0.052,2.141,0.195,3.2,0.363c4.217,0.757,8.242,2.206,12.025,4.207L280.713,157.305
					z"/>
			</g>
			<g>
				<path style="fill:#4DA157;" d="M269.956,192.709c-2.125,0.548-4.243,1.3-6.184,2.36c-1.943,1.063-3.746,2.37-5.358,3.88
					c-3.249,3.004-5.624,6.893-6.964,11.08c-0.704,2.103-1.014,4.259-1.21,6.496c-0.198,2.24-0.343,4.485-0.452,6.733
					c-0.211,4.496-0.273,9.002-0.226,13.507l-1.821,0.004c0.025-4.535,0.161-9.07,0.446-13.6c0.146-2.265,0.329-4.528,0.565-6.788
					c0.232-2.256,0.607-4.601,1.38-6.781c1.481-4.388,4.043-8.423,7.488-11.51c1.71-1.552,3.615-2.885,5.656-3.959
					c2.05-1.074,4.232-1.815,6.489-2.355L269.956,192.709z"/>
			</g>
			<g>
				<path style="fill:#4DA157;" d="M220.253,142.12c1.465,1.475,2.778,3.034,4.033,4.661c1.262,1.625,2.377,3.375,3.342,5.198
					c1.911,3.661,3.18,7.657,3.742,11.754c1.085,8.068,2.002,16.152,2.757,24.256c0.757,8.104,1.352,16.225,1.701,24.365
					c0.351,8.138,0.479,16.294,0.212,24.457l-2.172-0.089c0.366-8.082,0.341-16.193,0.093-24.298
					c-0.246-8.106-0.738-16.209-1.391-24.299c-0.651-8.09-1.466-16.173-2.447-24.229c-0.493-3.962-1.671-7.842-3.477-11.41
					c-1.805-3.557-4.32-6.783-7.06-9.687L220.253,142.12z"/>
			</g>
			<g>
				<path style="fill:#4DA157;" d="M188.209,167.236c2.692-0.06,5.358,0.037,8.031,0.216c2.669,0.19,5.336,0.466,7.981,0.924
					c2.64,0.466,5.282,1.004,7.842,1.876c2.556,0.861,5.072,1.94,7.34,3.512l-0.036-0.024c1.17,0.844,1.997,1.783,2.803,2.81
					c0.407,0.503,0.793,1.019,1.134,1.562c0.349,0.538,0.732,1.058,1.028,1.624l0.943,1.67c0.292,0.567,0.554,1.147,0.832,1.721
					c0.581,1.138,1.023,2.329,1.497,3.508c1.814,4.747,3.074,9.669,4.045,14.63c0.26,1.238,0.418,2.492,0.631,3.737
					c0.186,1.249,0.434,2.491,0.568,3.746c0.263,2.51,0.63,5.012,0.806,7.529c0.163,2.516,0.407,5.031,0.503,7.55l0.254,7.56
					l-1.741,0.02l-0.188-7.506c-0.074-2.502-0.295-4.994-0.435-7.492c-0.152-2.497-0.496-4.974-0.734-7.463
					c-0.121-1.245-0.357-2.472-0.53-3.709c-0.201-1.232-0.346-2.476-0.592-3.698c-0.917-4.904-2.118-9.761-3.852-14.418
					c-0.453-1.155-0.874-2.326-1.429-3.433c-0.265-0.559-0.515-1.127-0.793-1.679l-0.896-1.619
					c-0.282-0.552-0.643-1.048-0.973-1.567c-0.323-0.526-0.685-1.018-1.065-1.495c-0.72-0.958-1.598-1.908-2.459-2.545l-0.036-0.024
					c-2.109-1.487-4.517-2.553-6.991-3.409c-2.477-0.869-5.067-1.42-7.66-1.901c-2.599-0.473-5.232-0.768-7.871-0.979
					c-2.636-0.2-5.297-0.319-7.928-0.282L188.209,167.236z"/>
			</g>
			<g>
				<path style="fill:#4DA157;" d="M205.134,207.936c2.074-2.452,4.459-4.593,7.239-6.228c1.398-0.786,2.871-1.496,4.473-1.861
					c1.589-0.349,3.272-0.514,4.907-0.167c0.844,0.085,1.786,0.589,2.367,1.235c0.611,0.648,1.034,1.396,1.375,2.152
					c0.658,1.524,1.015,3.104,1.285,4.68c0.507,3.158,0.638,6.327,0.656,9.484c0.008,6.316-0.474,12.599-1.114,18.855
					c-0.658,6.259-1.489,12.481-2.513,18.703l-1.884-0.335c1.092-6.141,2.002-12.345,2.734-18.552
					c0.716-6.209,1.273-12.445,1.344-18.675c0.022-3.11-0.07-6.229-0.52-9.273c-0.238-1.514-0.566-3.019-1.137-4.386
					c-0.584-1.348-1.447-2.572-2.822-2.718c-1.446-0.33-2.958-0.198-4.418,0.099c-1.471,0.312-2.865,0.961-4.2,1.689
					c-2.652,1.507-5.032,3.59-7.029,5.893L205.134,207.936z"/>
			</g>
			<path style="fill:#6CCF7D;" d="M224.099,175.801c4.579-9.629,13.15-15.123,19.145-12.273c5.995,2.851,7.143,12.967,2.564,22.596
				c-4.579,9.629-13.15,15.123-19.145,12.273C220.668,195.546,219.52,185.43,224.099,175.801z"/>
			<g>
				<path style="fill:#59BB66;" d="M231.634,186.783c0.293-2.286,0.78-4.498,1.387-6.696c0.594-2.196,1.337-4.355,2.245-6.448
					c1.846-4.154,4.418-8.124,8.236-10.872c0.495-0.338,1.06-0.61,1.685-0.777c0.64-0.144,1.364-0.089,1.986,0.212
					c1.216,0.675,1.817,1.839,2.254,2.914c0.846,2.208,1.171,4.491,1.424,6.755c0.46,4.54,0.463,9.082,0.356,13.609
					c-0.25,9.056-1.024,18.072-1.961,27.063c-0.964,8.992-2.048,17.957-3.365,26.918l-2.475-0.402
					c1.5-8.868,2.844-17.793,3.942-26.733c1.091-8.942,2.018-17.911,2.423-26.896c0.185-4.489,0.259-8.993-0.114-13.444
					c-0.205-2.212-0.497-4.45-1.237-6.478c-0.368-0.998-0.924-1.953-1.711-2.397c-0.398-0.192-0.841-0.243-1.309-0.154
					c-0.465,0.12-0.936,0.325-1.377,0.617c-3.572,2.525-6.135,6.384-7.944,10.424c-1.798,4.075-2.974,8.472-3.5,12.88
					L231.634,186.783z"/>
			</g>
		</g>
		<polygon style="fill:#8CBF94;" points="251.639,301.156 223.405,301.156 213.885,227.338 261.159,227.338 		"/>
	</g>
	<g>
		<g>
			<path style="fill:#313E4B;" d="M343.434,166.169c0,0-3.74,4.997,0,9.991c1.148,1.532,6.55,4.975,6.55,4.975L343.434,166.169z"/>
			<path style="fill:#466E78;" d="M374.515,382.892l0.336,3.829c0.066,0.758-0.165,1.508-0.649,2.096
				c-1.571,1.907-6.297,1.846-7.795,0.801c-1.735-1.211,4.611-6.726,4.611-6.726H374.515z"/>
			<path style="fill:#466E78;" d="M346.721,382.892v3.038c0,0.658-0.213,1.298-0.612,1.821c-1.439,1.884-6.138,2.145-7.631,1.065
				c-2.192-1.586,5.147-5.924,5.147-5.924H346.721z"/>
			<path style="fill:#FF9153;" d="M354.164,282.811l-7.443,100.081c0,0-1.245,1.424-3.096,0l-11.714-91.905
				c-0.658-6.681,0.096-13.425,2.214-19.795l4.597-13.827l15.442,8.72V282.811z"/>
			<path style="fill:#FF9153;" d="M375.892,266.084l-1.377,116.808c0,0-2.074,1.777-3.498,0l-24.214-114.376L375.892,266.084z"/>
			<path style="fill:#8C8C4C;" d="M355.472,192.329c0,0-40.203,26.111-45.773,39.403c-3.722,8.882,12.845,17.467,12.845,17.467
				l4.36-5.265l-3.489-4.586c0,0,24.216-0.505,27.768-10.464C354.734,218.925,355.472,192.329,355.472,192.329z"/>
			<path style="fill:#969651;" d="M363.154,192.802c0,0,14.689,2.471,17.801,15.362c0,0,1.335,35.465-7.998,47.115h0
				c-11.408,6.68-22.478,5.199-33.4,0.185c-4.856-17.823-12.597-40.476,4.817-56.645
				C356.095,187.938,363.154,192.802,363.154,192.802z"/>
			<path style="fill:#313E4B;" d="M338.475,364.208l-7.903-74.734c-0.694-7.045,0.101-14.157,2.335-20.874l4.848-14.581
				l16.284,9.195l-4.046,100.994C347.061,364.047,340.401,365.159,338.475,364.208z"/>
			<path style="fill:#313E4B;" d="M364.902,364.208l-21.404-104.147l30.298-5.278l0.581,4.094
				c3.759,9.535,5.689,19.694,5.689,29.943l-2.898,73.779C374.736,364.208,370.193,364.208,364.902,364.208z"/>
			<polygon style="fill:#E0C695;" points="326.808,252.731 340.697,257.487 331.71,225.964 317.821,221.208 			"/>
			<path style="fill:#FF753A;" d="M337.273,245.303c0.489-0.378,1.202-0.001,1.202,0.617v1.901c0,2.06-1.373,3.067-3.067,3.067
				h-3.728v-2.627l3.064-1.68C334.744,246.581,336.018,246.274,337.273,245.303z"/>
			<path style="fill:#8C8C4C;" d="M334.672,246.197c0.484,2.44,0.438,4.316-1.077,6.13l-1.619-0.123
				c-3.336-0.253-6.566-1.282-9.433-3.005l0,0v-10.544L334.672,246.197z"/>
			<polygon style="fill:#FFFFFF;" points="346.804,258.736 344.644,269.153 332.313,267.509 336.882,256.181 			"/>
			<polygon style="fill:#FFFFFF;" points="351.737,269.153 346.804,258.736 373.796,254.783 379.332,265.429 			"/>
			<path style="fill:#313E4B;" d="M340.214,155.128c0.563-3.378,3.612-9.758,16.677-0.469c0,0,1.974-0.481,5.819-2.439
				c1.982-1.01,4.286-1.703,6.542-1.856v12.524c-0.049-0.063-0.088-0.129-0.14-0.191c0,0-0.563,15.888-8.632,12.791
				c-4.586-1.76-5.358-6.095-5.091-9.631c-1.974,2.646-4.981,5.133-8.795,3.594C339.463,166.575,339.651,158.506,340.214,155.128z"
				/>
			<path style="fill:#313E4B;" d="M359.542,160.007c0,0-5.55,13.792-13.518,9.195c-7.968-4.597-4.59-11.447,3.197-11.728
				C357.009,157.192,359.636,155.316,359.542,160.007z"/>
			<path style="fill:#313E4B;" d="M357.28,147.296c-2.85,4.936-0.322,11.731,5.646,15.177c5.969,3.446,13.117,2.238,15.967-2.699
				c2.85-4.936,0.322-11.731-5.646-15.177C367.279,141.152,360.13,142.36,357.28,147.296z"/>
			<path style="fill:#8C8C4C;" d="M357.834,239.368c-4.186,6.587-24.562,20.374-24.562,20.374l1.759,4.243
				c0,0,32.965-6.246,39.232-14.631c5.429-7.264,4.68-30.597,3.932-42.154c-0.241-3.722-3.328-6.613-7.058-6.613l0,0
				c-3.697,0-6.766,2.841-7.051,6.527C363.355,216.547,361.564,233.499,357.834,239.368z"/>
			<g>
				<path style="fill:#FF753A;" d="M359.671,174.997c0,0-1.481,9.549,4.358,16.377c0,0-1.737,2.304-4.427,3.842
					c-4.131,2.361-9.397,3.5-8.641-1.966c0,0,2.446-5.791,0.824-15.632L359.671,174.997z"/>
				<path style="fill:#FF9153;" d="M362.027,170.288c0,0,3.441,7.059-2.239,14.03c-1.869,2.294-4.728,3.324-6.322,3.314
					c-3.359-0.02-5.809-4.912-6.361-6.978c-0.864-3.235-3.672-12.91-3.672-12.91s6.859-0.896,12.274-0.509
					c2.732,0.195,4.936-1.709,6.033,1.91C361.85,169.504,361.945,169.884,362.027,170.288z"/>
				<g>
					<path style="fill:#AA340B;" d="M354.545,171.359c0.675-0.336,1.309-0.351,1.934-0.29c0.62,0.094,1.231,0.265,1.801,0.761
						c-0.675,0.339-1.309,0.354-1.934,0.29C355.726,172.024,355.115,171.852,354.545,171.359z"/>
				</g>
				<g>
					<path style="fill:#AA340B;" d="M350.513,172.313c-0.334,0.585-0.789,0.87-1.273,1.084c-0.496,0.183-1.021,0.294-1.669,0.102
						c0.333-0.588,0.788-0.872,1.273-1.084C349.341,172.233,349.867,172.123,350.513,172.313z"/>
				</g>
				<path style="fill:#5C2F1C;" d="M355.798,174.69c0.042,0.637,0.342,1.135,0.668,1.113c0.327-0.022,0.558-0.555,0.515-1.192
					c-0.042-0.637-0.341-1.135-0.668-1.113S355.756,174.054,355.798,174.69z"/>
				<path style="fill:#5C2F1C;" d="M348.495,175.174c0.042,0.637,0.341,1.135,0.668,1.113s0.558-0.555,0.515-1.192
					c-0.042-0.637-0.341-1.135-0.668-1.113S348.453,174.538,348.495,175.174z"/>
				<path style="fill:#FF9153;" d="M361.234,172.638c-0.378,1.964,0.199,3.726,1.289,3.935c1.09,0.21,2.279-1.212,2.657-3.176
					c0.378-1.964-0.199-3.726-1.289-3.936C362.802,169.252,361.612,170.674,361.234,172.638z"/>
				<path style="fill:#FF5E00;" d="M351.96,174.237l-0.793,4.341c-0.031,0.471,0.315,1.256,1.332,0.96l0,0
					c0.497-0.033,0.836-0.516,0.698-0.995L351.96,174.237z"/>
				<path style="fill:#313E4B;" d="M361.023,164.883c0,0-9.613,9.856-17.589,4.077c-8.962-6.493-3.087-10.867,5.213-11.72
					C356.947,156.388,360.791,159.865,361.023,164.883z"/>
				<path style="fill:#313E4B;" d="M358.637,166.421c0,0,2.283,3.709,1.955,6.841l1.068-0.071l0.792-4.235
					C362.451,168.956,361.236,165.176,358.637,166.421z"/>
				<path style="fill:#FBE3CA;" d="M354.712,180.92c0.074,1.119-0.773,2.086-1.891,2.16c-1.119,0.074-2.086-0.772-2.16-1.891
					L354.712,180.92z"/>
			</g>
			<g>
				<path style="fill:none;stroke:#969651;stroke-width:0.4333;stroke-miterlimit:10;" d="M358.749,176.16
					c0,1.718-1.393,3.111-3.111,3.111c-1.718,0-3.111-1.393-3.111-3.111s1.393-3.111,3.111-3.111
					C357.356,173.049,358.749,174.442,358.749,176.16z"/>
				<path style="fill:none;stroke:#969651;stroke-width:0.4333;stroke-miterlimit:10;" d="M351.474,176.16
					c0,1.718-1.393,3.111-3.111,3.111c-1.718,0-3.111-1.393-3.111-3.111s1.393-3.111,3.111-3.111
					C350.081,173.049,351.474,174.442,351.474,176.16z"/>
				
					<line style="fill:none;stroke:#969651;stroke-width:0.4333;stroke-miterlimit:10;" x1="351.156" y1="174.796" x2="352.842" y2="174.796"/>
				
					<line style="fill:none;stroke:#969651;stroke-width:0.4333;stroke-linecap:round;stroke-miterlimit:10;" x1="358.582" y1="175.158" x2="361.339" y2="170.722"/>
			</g>
			<path style="fill:#FFFFFF;" d="M353.251,197.178l1.061,1.769c1.024,1.708,3.22,2.292,4.958,1.318l11.366-6.368
				c-2.261-2.086-4.466-2.991-6.606-2.524L353.251,197.178z"/>
			<path style="fill:#FFFFFF;" d="M350.148,199.42l3.103-2.242l-2.244-3.748c-2.681,0.188-4.439,1.127-4.789,3.215l0.317,1.408
				C346.9,199.673,348.802,200.393,350.148,199.42z"/>
		</g>
		<path style="fill:#FF753A;" d="M333.78,260.566l-4.122,1.779h-7.641c-1.128,2.372,4.245,4.179,6.872,4.179l0,0
			c1.316,0.212,2.651-0.255,3.548-1.241l2.266-2.491L333.78,260.566z"/>
	</g>
	<g>
		<rect x="105.082" y="283.806" style="fill:#6E6E9B;" width="46.864" height="7.052"/>
		
			<line style="fill:none;stroke:#9E88B4;stroke-width:2.3799;stroke-miterlimit:10;" x1="128.905" y1="279.073" x2="128.905" y2="345.56"/>
		<polyline style="fill:none;stroke:#9E88B4;stroke-width:2.3799;stroke-miterlimit:10;" points="112.749,345.018 128.905,340.286 
			145.06,345.018 		"/>
		<path style="fill:#DBDB96;" d="M122.959,175.572c-6.024,0.784-11.031,5.461-12.323,11.469c-0.016,0.076-0.032,0.152-0.047,0.228
			c-0.839,4.2-3.74,7.51-7.675,9.09c-4.035,1.62-7.102,5.527-7.216,10.456l-0.002,0.078c-0.065,3.198-1.833,5.997-4.449,7.791
			c-2.603,1.785-3.949,4.915-3.964,8.487c-0.02,4.505-0.03,8.776-0.035,11.927c-0.003,1.551,1.918,2.239,2.882,1.034
			c1.851-2.315,4.314-4.723,6.531-4.693c4.417,0.059,7.766-3.486,8.521-7.458c0.54-2.845,2.645-5.013,5.369-5.9
			c3.058-0.997,5.56-3.287,6.891-6.191c1.769-3.859,5.416-6.38,9.579-6.966c0.062-0.009,0.123-0.018,0.185-0.027
			c6.035-0.924,10.973-5.742,12.091-11.817C141.141,183.054,132.922,174.275,122.959,175.572z"/>
		<path style="fill:#466E78;" d="M124.984,341.637v2.964c0,0.642-0.208,1.266-0.597,1.777c-1.404,1.839-2.244,7.251-3.701,6.197
			c-2.139-1.548,1.277-10.938,1.277-10.938H124.984z"/>
		<path style="fill:#FF753A;" d="M136.104,247.408l-11.12,94.229c0,0-1.116,1.465-3.021,0l-9.593-78.496
			c-0.678-6.875,0.004-13.208,1.37-23.16L136.104,247.408z"/>
		<path style="fill:#466E78;" d="M152.675,323.93l1.754,2.655c0.439,0.665,4.821,6.913,6.551,6.099
			c1.209-0.569-1.086-5.545-2.451-8.26c-0.57-1.134-1.414-2.092-2.464-2.805l-0.985-0.669L152.675,323.93z"/>
		<path style="fill:#DBDB96;" d="M129.033,171.97c-3.918,1.541-5.678,2.381-5.678,2.381c-12.749-9.064-15.725-2.838-16.274,0.458
			c-0.549,3.296-0.733,11.17,6.226,13.977c3.73,1.505,6.66-0.937,8.586-3.526c-0.265,3.454,0.39,7.952,4.965,9.417
			C141.122,199.243,138.957,168.066,129.033,171.97z"/>
		<path style="fill:#823014;" d="M129.136,206.095c0,0,8.525-0.354,14.738,6.282c6.022,6.431,2.259,24.115,2.71,45.385
			c0,0,9.642,13,0.303,33.875l-7.396-0.418l2.564-9.725c0,0-9.738,3.031-37.448-4.775c-2.825-8.706,1.809-14.257,0.776-18.225
			c-2.743-10.54-7.489-28.804,2.25-44.183C115.983,201.126,129.136,206.095,129.136,206.095z"/>
		<path style="fill:#FF753A;" d="M126.49,191.584c0,0-1.923,8.594,2.976,15.156c0,0-1.718,1.991-4.257,3.227
			c-1.53,0.745-3.206,1.848-4.618,1.959c-2.187,0.173-3.739-1.276-3.121-4.269c0,0,2.573-5.119,1.692-14.166L126.49,191.584z"/>
		<path style="fill:#FF9153;" d="M128.917,187.443c0,0,2.703,6.627-2.882,12.624c-1.838,1.973-4.5,2.738-5.949,2.633
			c-3.053-0.221-4.986-4.817-5.364-6.729c-0.591-2.993-2.438-9.919-0.598-12.362c1.684-2.236,4.329-0.001,9.231,0.678
			c2.472,0.342,4.591-1.256,5.371,2.1C128.803,186.72,128.867,187.071,128.917,187.443z"/>
		<g>
			<path style="fill:#949465;" d="M122.355,188.534c0.633-0.26,1.21-0.234,1.775-0.14c0.559,0.122,1.104,0.314,1.594,0.794
				c-0.633,0.262-1.211,0.236-1.775,0.14C123.39,189.203,122.845,189.012,122.355,188.534z"/>
		</g>
		<g>
			<path style="fill:#949465;" d="M118.385,188.861c-0.431,0.433-0.899,0.576-1.375,0.652c-0.48,0.046-0.968,0.023-1.494-0.291
				c0.431-0.435,0.898-0.579,1.375-0.652C117.372,188.525,117.86,188.548,118.385,188.861z"/>
		</g>
		<path style="fill:#5C2F1C;" d="M123.498,191.071c0,0.581,0.242,1.053,0.541,1.053s0.541-0.471,0.541-1.053
			s-0.242-1.053-0.541-1.053S123.498,190.49,123.498,191.071z"/>
		<path style="fill:#5C2F1C;" d="M116.828,191.071c0,0.581,0.242,1.053,0.541,1.053c0.299,0,0.541-0.471,0.541-1.053
			s-0.242-1.053-0.541-1.053C117.07,190.018,116.828,190.49,116.828,191.071z"/>
		<path style="fill:#FF9153;" d="M128.054,189.533c-0.462,1.763-0.044,3.4,0.934,3.656c0.978,0.257,2.146-0.965,2.608-2.728
			c0.462-1.763,0.044-3.4-0.935-3.656C129.684,186.548,128.516,187.77,128.054,189.533z"/>
		<path style="fill:#FF5E00;" d="M120.275,190.443l-0.983,3.9c-0.056,0.426,0.211,1.161,1.154,0.953l0,0
			c0.454,0,0.791-0.419,0.695-0.862L120.275,190.443z"/>
		<path style="fill:#DBDB96;" d="M125.941,179.569c0,0-5.665,12.402-13.44,7.915s-4.23-10.113,3.369-10.387
			C123.469,176.822,126.033,174.991,125.941,179.569z"/>
		<path style="fill:#FF753A;" d="M145.564,282.813l-0.662,3.043l0.935,2.733c0.337,0.986-0.386,2.015-1.428,2.032l-3.44,0.056
			c-0.928,0.015-1.583-0.906-1.263-1.778l1.351-3.684l0.713-3.098L145.564,282.813z"/>
		<path style="fill:#823014;" d="M141.497,245.554c0,0,17.366,35.723-3.492,51.242l-15.193-41.044L141.497,245.554z"/>
		<path style="fill:#FF9153;" d="M110.232,284.443c4.618-1.396,9.404-2.295,12.103-1.206c9.245,3.73,30.34,40.694,30.34,40.694
			s2.394-0.637,2.404-2.98c0,0-9.535-43.567-20.624-56.552c-2.099-2.457-5.756-5.097-9.876-7.6l-17.738,1.238
			C106.841,258.036,103.962,286.338,110.232,284.443z"/>
		<path style="fill:#823014;" d="M124.58,256.798c0,0-13.452-0.318-8.278,38.518c0,0-14.057-9.243-14.056-26.361
			c0.001-10.429,3.25-17.271,3.25-17.271L124.58,256.798z"/>
		<path style="fill:#AF481F;" d="M96.223,259.526c7.305,0.006,14.607,0.086,21.906,0.308l-10.438-7.875
			c0,0-1.509-6.228-1.509-13.901c0-10.788,3.612-26.651,3.612-26.651s-15.958,17.355-17.729,41.763
			C91.89,255.57,93.596,257.693,96.223,259.526z"/>
		<path style="fill:#FFFFFF;" d="M118.385,197.407c0,1.014,0.822,1.836,1.836,1.836c1.014,0,1.836-0.822,1.836-1.836H118.385z"/>
		<path style="fill:#FFFFFF;" d="M120.432,211.926c3.274-1.991,6.096-4.199,7.938-6.88l4.345,1.383l-6.907,6.319
			C124.208,214.211,121.504,213.81,120.432,211.926z"/>
		<path style="fill:#FFFFFF;" d="M120.432,211.926L120.432,211.926c-1.294-2.364-2.152-4.589-2.145-6.539l-2.77,1.544l1.051,4.215
			C117.013,212.931,119.331,213.398,120.432,211.926z"/>
		<path style="fill:#385A5A;" d="M106.181,254.661H64.281v-4.133h37.767C104.331,250.528,106.181,252.378,106.181,254.661
			L106.181,254.661z"/>
		<path style="fill:#466E78;" d="M89.856,254.661H38.317l-7.158-28.242c-0.542-2.138,1.074-4.214,3.279-4.214h44.559
			c1.548,0,2.899,1.051,3.279,2.552L89.856,254.661z"/>
		<path style="fill:#FF753A;" d="M124.701,227.091l-0.675-4.672c0,0-2.91-4.524-2.689-4.673c0.403-0.273,1.949,1.548,1.949,1.548
			s-1.277-6.454-0.556-6.612c0.34-0.074,1.214,3.936,1.214,3.936s-0.606-5.032-0.191-5.123c0.488-0.108,1.619,4.824,1.619,4.824
			s-0.466-4.462-0.041-4.599c0.426-0.137,1.128,4.757,1.128,4.757s0.023-3.19,0.41-3.261c0.386-0.071,0.926,5.549,0.926,5.549
			l-0.944,5.291l0.39,3.117L124.701,227.091z"/>
		<path style="fill:#AF481F;" d="M132.714,236.747l-5.327-12.285l-3.988-0.148c0,0,4.655,32.786,10.705,32.484
			c6.185-0.309,8.757-7.257,11.594-12.697c1.776-3.405,2.737-7.187,2.753-11.028c0.051-12.324-2.497-21.756-8.171-22.304
			C133.656,210.129,132.714,236.747,132.714,236.747z"/>
		<g>
			<path style="fill:none;stroke:#9E88B4;stroke-width:2.5448;stroke-miterlimit:10;" d="M37.56,353.684l6.034-75.729
				c0.615-8.304,7.532-14.727,15.858-14.727h5.976c8.326,0,15.243,6.423,15.858,14.727l6.034,75.729"/>
			<path style="fill:none;stroke:#9E88B4;stroke-width:2.5448;stroke-miterlimit:10;" d="M155.64,353.684l6.034-75.729
				c0.615-8.304,7.532-14.727,15.858-14.727h5.976c8.326,0,15.243,6.423,15.858,14.727l6.034,75.729"/>
			<rect x="32.877" y="254.653" style="fill:#6E6E9B;" width="173.252" height="7.559"/>
		</g>
	</g>
	<g>
		<path style="fill:#C3A517;" d="M695.624,354.522h-13.739c-1.36,0-2.523-0.98-2.754-2.32l-3.547-20.604h26.34l-3.547,20.604
			C698.147,353.542,696.984,354.522,695.624,354.522z"/>
		<g>
			<g>
				<path style="fill:#59BB66;" d="M701.81,270.948c-3.175-3.308-5.201-7.525-6.283-11.981
					c-2.433-10.019-8.137-17.051-14.787-17.051c-8.862,0-16.046,12.487-16.046,27.89c0,15.403,17.315,46.884,20.687,47.082
					c2.979,0.175,20.687-25.813,20.687-33.981C706.068,277.992,704.391,273.637,701.81,270.948z"/>
				<g>
					<path style="fill:#57903A;" d="M686.049,261.186c1.39,5.757,2.265,11.65,2.675,17.575c0.436,5.926,0.45,11.886,0.134,17.828
						c-0.309,5.944-0.935,11.87-1.812,17.765c-0.896,5.894-1.963,11.695-2.936,17.548l-3.16-0.612
						c1.233-5.781,2.572-11.578,3.718-17.348c1.128-5.774,2.013-11.607,2.585-17.472c0.579-5.865,0.834-11.768,0.668-17.669
						C687.78,272.9,687.177,267.001,686.049,261.186z"/>
				</g>
				<g>
					<defs>
						<path id="SVGID_1_" d="M701.81,270.948c-3.175-3.308-5.201-7.525-6.283-11.981c-2.433-10.019-8.137-17.051-14.787-17.051
							c-8.862,0-16.046,12.487-16.046,27.89c0,15.403,17.315,46.884,20.687,47.082c2.979,0.175,20.687-25.813,20.687-33.981
							C706.068,277.992,704.391,273.637,701.81,270.948z"/>
					</defs>
					<clipPath id="SVGID_00000076596048349595079350000015186160340181422498_">
						<use xlink:href="#SVGID_1_"  style="overflow:visible;"/>
					</clipPath>
				</g>
			</g>
			<path style="fill:#E6AC1C;" d="M718.666,297.246c4.293-11.733,4.135-22.575-0.353-24.217
				c-3.989-1.459-10.054,4.842-14.367,14.499c-0.757,1.694-2.08,3.11-3.781,3.851c-3.332,1.451-5.934,5.965-6.249,11.452
				c-0.393,6.855,5.38,15.177,5.38,15.177S714.423,308.842,718.666,297.246z"/>
			<g>
				<path style="fill:#C8A111;" d="M715.078,279.402c-3.96,8.391-7.62,16.924-10.801,25.626c-1.583,4.352-3.044,8.747-4.305,13.193
					c-1.247,4.446-2.302,8.95-2.921,13.495l-1.592-0.238c0.768-4.633,1.969-9.154,3.356-13.601c1.4-4.444,2.996-8.816,4.71-13.136
					C706.967,296.107,710.877,287.676,715.078,279.402z"/>
			</g>
			<g>
				<defs>
					<path id="SVGID_00000094617065225919742310000012982802794696126366_" d="M718.666,297.246
						c4.293-11.733,4.135-22.575-0.353-24.217c-3.989-1.459-10.054,4.842-14.367,14.499c-0.757,1.694-2.08,3.11-3.781,3.851
						c-3.332,1.451-5.934,5.965-6.249,11.452c-0.393,6.855,5.38,15.177,5.38,15.177S714.423,308.842,718.666,297.246z"/>
				</defs>
				<clipPath id="SVGID_00000160884149094599314080000009601607754755639683_">
					<use xlink:href="#SVGID_00000094617065225919742310000012982802794696126366_"  style="overflow:visible;"/>
				</clipPath>
			</g>
		</g>
		<path style="fill:#D7B422;" d="M701.672,335.212h-25.834c-0.922,0-1.669-0.747-1.669-1.669v-3.98c0-0.922,0.747-1.669,1.669-1.669
			h25.834c0.922,0,1.669,0.747,1.669,1.669v3.98C703.341,334.465,702.593,335.212,701.672,335.212z"/>
		<g>
			<path style="fill:#C8A111;" d="M680.088,297.553c1.1,2.375,2.083,4.804,3.001,7.258c0.908,2.458,1.756,4.943,2.473,7.473
				c1.42,5.052,2.514,10.269,2.342,15.669l-1.605-0.117c0.427-5.076-0.362-10.288-1.516-15.35c-0.58-2.539-1.296-5.051-2.074-7.543
				C681.92,302.453,681.064,299.98,680.088,297.553z"/>
		</g>
	</g>
	<g>
		<path style="fill:#A5162A;" d="M429.911,399.166l0.082,3.662c0.016,0.725-0.251,1.424-0.748,1.953
			c-1.613,1.716-5.301,5.35-6.66,4.264c-1.575-1.259,2.994-7.488,2.994-7.488l1.005-2.607L429.911,399.166z"/>
		<path style="fill:#AF5C24;" d="M441.128,250.364c0,0-37.449,11.51,9.734,77.535l5.596-1.969L441.128,250.364z"/>
		<rect x="447.243" y="338.034" style="fill:#6E6E9B;" width="46.864" height="7.052"/>
		
			<line style="fill:none;stroke:#9E88B4;stroke-width:2.3799;stroke-miterlimit:10;" x1="471.066" y1="333.302" x2="471.066" y2="399.788"/>
		<polyline style="fill:none;stroke:#9E88B4;stroke-width:2.3799;stroke-miterlimit:10;" points="454.91,399.246 471.066,394.514 
			487.221,399.246 		"/>
		<path style="fill:#D9AA51;" d="M474.025,295.015l-51.954,19.768c-6.707,2.552-10.659,9.504-9.42,16.572l12.824,68.432h5.239
			l8.313-63.815h34.251L474.025,295.015z"/>
		<path style="fill:none;stroke:#9E88B4;stroke-width:2.5448;stroke-miterlimit:10;" d="M358.009,412.9l6.034-81.44
			c0.615-8.304,7.532-14.727,15.858-14.727h5.976c8.327,0,15.243,6.423,15.858,14.727l6.034,81.44"/>
		<path style="fill:#E6B85D;" d="M436.515,344.001l22.521-32.301l33.502-3.19l-3.129,16.645
			c-2.157,11.475-8.547,21.72-17.904,28.705l-18.35,13.698L436.515,344.001z"/>
		<path style="fill:#FF9153;" d="M401.219,296.319l-4.222,0.258l-4.554,0.761c-1.05,0.175-2.115,0.19-3.169,0.042
			c-2.071-0.29-5.025-2.514-5.057-3.646c-0.06-2.117,9.167-0.075,9.652-1.22c0.374-0.883-2.797-2.204-2.277-2.708
			c1.133-1.097,5.902,2.233,5.902,2.233l3.84,1.043L401.219,296.319z"/>
		<path style="fill:#AF5C24;" d="M449.321,262.105c-5.136-4.471-13.147-2.319-15.382,4.113c-2.573,7.406-6.001,15.582-9.362,18.441
			c-5.5,4.679-25.274,7.071-25.274,7.071c-0.542,1.693-0.576,3.322-0.175,4.897c0,0,29.444,4.903,37.584,0.195
			c5.106-2.953,11.455-15.589,15.056-23.524C453.519,269.439,452.518,264.889,449.321,262.105L449.321,262.105z"/>
		<path style="fill:#A5162A;" d="M404.255,404.324c0,0-7.778,9.978-9.883,8.268c-1.441-1.171,0.627-4.288,4.406-8.006l3.08-2.496
			L404.255,404.324z"/>
		<path style="fill:#E5C294;" d="M477.116,321.214c-11.129,2.876-33.02,4.152-39.14-12.24c-3.044-8.154-3.312-25.519-3.943-36.368
			c-1.536-26.421,21.017-26.08,21.017-26.08s22.92-5.158,35.071,32.633l5.244,30.661l-7.171,5.009
			C488.195,314.829,484.214,319.379,477.116,321.214z"/>
		<g>
			<path style="fill:#FF753A;" d="M442.613,241.082l-1.861,11.633c-0.181,1.133,0.556,2.222,1.683,2.441
				c3.21,0.622,9.896,0.876,16.953-5.145c-2.606-5.966-4.887-11.99-6.043-18.218L442.613,241.082z"/>
			<path style="fill:#FF9153;" d="M436.705,224.278c0,0,0.12,17.436,6.253,19.48c6.133,2.044,10.496-4.93,12.463-13.588
				c1.967-8.658-2.362-11.303-4.887-11.303C448.008,218.867,437.306,215.499,436.705,224.278z"/>
			<path style="fill:#5A2D51;" d="M437.854,208.475c-3.2,0.878-5.794,3.192-7.369,6.113c-2.105,3.905-4.189,10.243,2.658,12.606
				c0,0,2.615,1.804,11.273-5.05c8.658-6.854,7.576,8.117,7.576,8.117l1.015-0.654l1.894-3.63c0,0,0.969-1.759,1.601,0.316
				c0.631,2.074-1.939,5.501-1.939,5.501l-0.54,3.137c0.182,0.986,0.428,1.885,0.728,2.711c0,0,1.661-8.192,3.465-10.537
				c1.804-2.345,5.592-5.411,4.149-9.56c-1.443-4.149-14.72-4.169-16.794-6.965C444.221,208.762,441.166,207.567,437.854,208.475z"
				/>
			<g>
				<path style="fill:#64270D;" d="M441.08,226.743c-0.609,0.41-1.147,0.629-1.711,0.847c-0.572,0.193-1.118,0.383-1.858,0.446
					c0.303-0.681,0.899-1.099,1.533-1.34C439.685,226.479,440.409,226.402,441.08,226.743z"/>
			</g>
			<path style="fill:#ED5A25;" d="M442.872,229.328l-1.11,5.106c-0.118,0.583,0.412,1.116,1.11,1.116l0,0
				c0.682,0,1.207-0.509,1.116-1.082L442.872,229.328z"/>
			<g>
				<path style="fill:#64270D;" d="M445.57,226.728c0.711-0.312,1.439-0.263,2.124-0.069c0.338,0.117,0.674,0.262,0.966,0.494
					c0.291,0.226,0.554,0.522,0.668,0.898c-0.745-0.163-1.296-0.296-1.916-0.483C446.807,227.367,446.202,227.163,445.57,226.728z"
					/>
			</g>
			<path style="fill:#64270D;" d="M440.87,230.561c0,0.681-0.269,1.232-0.601,1.232c-0.332,0-0.601-0.552-0.601-1.232
				s0.269-1.233,0.601-1.233C440.601,229.328,440.87,229.88,440.87,230.561z"/>
			<path style="fill:#64270D;" d="M447.243,230.561c0,0.681-0.269,1.232-0.601,1.232c-0.332,0-0.601-0.552-0.601-1.232
				s0.269-1.233,0.601-1.233C446.974,229.328,447.243,229.88,447.243,230.561z"/>
			<path style="fill:#FBE3CA;" d="M441.745,236.325c0,1.453,1.178,2.631,2.63,2.631c1.453,0,2.63-1.178,2.63-2.631H441.745z"/>
			<path style="fill:#FF9153;" d="M456.232,229.313c-1.131,1.616-1.405,2.997-2.331,2.705c-0.926-0.292-1.196-2.054-0.602-3.935
				c0.594-1.881,1.826-3.169,2.752-2.876C456.977,225.499,457.81,227.058,456.232,229.313z"/>
		</g>
		<path style="fill:#AF5C24;" d="M457.814,246.283c0,0-11.192,24.556,28.839,88.102c0,0,15.801-24.171,7.695-50.625
			C489.916,269.296,475.468,244.117,457.814,246.283z"/>
		<path style="fill:#E6B85D;" d="M455.525,365.707l-50.797,39.684c-1.704-0.441-3.089-1.515-4.246-3.044l33.464-55.183
			c3.675-5.997,10.915-8.784,17.663-6.797l0.493,0.145c3.598,1.059,6.526,3.687,7.967,7.15l0,0
			C462.713,354.019,460.865,361.359,455.525,365.707z"/>
		<polygon style="fill:#2A577D;" points="420.114,308.156 362.253,308.156 345.966,272.66 403.827,272.66 		"/>
		<rect x="396.198" y="304.131" style="fill:#2A577D;" width="49.466" height="4.026"/>
		<path style="fill:#FF9153;" d="M438.507,301.686l-0.848,0.401c-1.819,0.86-3.893,0.946-5.806,0.322
			c-1.145-0.373-2.419-0.643-3.328-0.423c-1.034,0.25-7.783,2.916-7.911,1.791c-0.114-0.996,3.566-3.874,7.778-4.911
			c4.683-1.152,9.955-0.415,9.955-0.415L438.507,301.686z"/>
		<path style="fill:#BE7636;" d="M469.202,252.262c-5.681,0.239-9.983,5.206-9.417,10.864c0.919,9.181,3.51,19.576,0.042,23.623
			c-4.699,5.483-23.853,10.945-23.853,10.945c-0.27,1.757,0.492,4.293,1.135,5.786c0,0,29.309-0.695,36.61-6.621
			c4.517-3.666,4.717-21.155,5.749-33.915C479.946,257.02,475.14,252.012,469.202,252.262L469.202,252.262z"/>
		<path style="fill:none;stroke:#9E88B4;stroke-width:2.5448;stroke-miterlimit:10;" d="M476.089,412.9l6.034-81.44
			c0.615-8.304,7.532-14.727,15.858-14.727h5.976c8.326,0,15.243,6.423,15.858,14.727l6.034,81.44"/>
		<rect x="353.326" y="308.156" style="fill:#6E6E9B;" width="173.252" height="7.559"/>
	</g>
	<g>
		<polyline style="fill:none;stroke:#9E88B4;stroke-width:2.3799;stroke-miterlimit:10;" points="210.748,398.638 226.903,393.906 
			243.059,398.638 		"/>
		
			<line style="fill:none;stroke:#9E88B4;stroke-width:2.3799;stroke-miterlimit:10;" x1="226.903" y1="332.693" x2="226.903" y2="399.18"/>
		<g>
			<path style="fill:#732332;" d="M230.429,222.448c-3.442,3.497-0.059,10.523-0.927,12.577c-2.152,5.091-12.951,0.183-18.139,2.087
				c-4.561,1.674-9.473,4.789-12.068,10.586c-2.151,4.806-2.472,8.99-2.271,11.934c0.18,2.63-0.607,5.193-2.137,7.34
				c-4.155,5.828-1.488,14.82,6.285,16.675c15.382,3.67,12.192-14.927,18.895-24.164c8-11.024,24.526-14.946,27.129-37.248
				C247.195,222.235,242.653,210.028,230.429,222.448z"/>
			<path style="fill:#5D8CA0;" d="M299.945,271.756l-27.151,8.548c-0.811,2.985,0,13.888,0,13.888s2.664,0.786,6.566-1.15
				c8.627-4.282,16.015-10.085,24.142-16.376c1.229-0.952-0.652-3.268-1.795-4.484C301.256,271.699,300.568,271.536,299.945,271.756
				z"/>
			<path style="fill:#5D8CA0;" d="M274.073,280.051c-2.757-2.418-12.383-14.433-20.3-21.091c-9.34-7.854-20.092-8.634-17.909,3.138
				c0,0,1.524,12.802,23.227,24.093c4.815,2.505,10.355,6.152,13.705,8C272.795,294.191,274.047,283.622,274.073,280.051z"/>
			<path style="fill:#5A2D51;" d="M234.818,396.694l-1.11,3.802c-0.219,0.751-0.169,1.551,0.145,2.267
				c0.994,2.265,3.93,7.008,4.973,6.432c1.467-0.811-1.123-7.562-1.123-7.562l0.425-2.272L234.818,396.694z"/>
			<path style="fill:#F86527;" d="M247.551,313.918l-13.238,84.503c1.04,1.013,2.002,0.884,3.815,0.939l33.371-79.442
				L247.551,313.918z"/>
			<path style="fill:#5D8CA0;" d="M241.221,252.731c-6.665-0.964-16.035-2.984-22.842,4.906c-4.477,5.189-3.631,16.355-5.366,27.901
				c-3.14,20.903,1.886,28.38,1.886,28.38s25.042,2.406,31.278-3.83c0.749-4.032,17.923-20.76,11.103-39.546
				C253.904,261.241,247.567,253.65,241.221,252.731z"/>
			<path style="fill:#F86527;" d="M243.167,245.347h-6.825c-0.255,2.063-0.671,4.435-1.331,7.096
				c-0.301,1.212-0.018,2.5,0.765,3.473c2.256,2.8,7.028,7.552,9.486,1.316c0.363-0.922,0.359-1.952,0.015-2.882
				C244.64,252.626,243.579,249.29,243.167,245.347z"/>
			<path style="fill:#FF753A;" d="M234.17,238.427c0,0-0.282,5.165,2.733,9.152c1.128,1.492,2.989,4.05,6.569,3.941
				c2.223-0.067,3.94-1.934,5.147-3.833c3.922-6.17,3.58-18.226,3.58-18.226s-12.632-5.198-16.924,1.953
				C234.367,232.93,234.17,235.72,234.17,238.427z"/>
			<path style="fill:#FBE3CA;" d="M241.828,245.347c0,1.2,0.973,2.173,2.173,2.173c1.2,0,2.173-0.973,2.173-2.173H241.828z"/>
			<path style="fill:#5C2F1C;" d="M241.141,239.194c0,0.609-0.253,1.102-0.566,1.102c-0.312,0-0.566-0.493-0.566-1.102
				c0-0.609,0.253-1.102,0.566-1.102C240.888,238.092,241.141,238.585,241.141,239.194z"/>
			<path style="fill:#5C2F1C;" d="M248.639,239.194c0,0.609-0.253,1.102-0.566,1.102c-0.312,0-0.566-0.493-0.566-1.102
				c0-0.609,0.253-1.102,0.566-1.102C248.386,238.092,248.639,238.585,248.639,239.194z"/>
			<path style="fill:#FF5E00;" d="M244.303,238.363l0.954,3.881c0.059,0.446-0.077,1.197-1.132,1.197l0,0
				c-0.475,0-0.828-0.438-0.727-0.902L244.303,238.363z"/>
			<g>
				<path style="fill:#732332;" d="M241.828,236.607c-0.711,0.259-1.347,0.236-1.976,0.161c-0.629-0.104-1.218-0.265-1.851-0.672
					c0.656-0.396,1.351-0.406,1.997-0.328C240.644,235.88,241.277,236.084,241.828,236.607z"/>
			</g>
			<g>
				<path style="fill:#732332;" d="M246.531,236.916c0.315-0.532,0.812-0.731,1.304-0.798c0.493-0.042,1.036,0.062,1.44,0.527
					c-0.514,0.332-0.906,0.418-1.335,0.479C247.509,237.152,247.092,237.143,246.531,236.916z"/>
			</g>
			<path style="fill:#732332;" d="M235.192,228.67c0,0,7.456,8.639,15.353,8.32c7.897-0.319,10.249-8.751,9.712-11.945
				c-0.537-3.194-1.908-13.542-15.211-5.238C245.046,219.808,226.122,217.987,235.192,228.67z"/>
			<path style="fill:#FF753A;" d="M235.468,238.937c0.551,2.103,0.168,4.026-0.855,4.294c-1.024,0.268-2.301-1.219-2.852-3.322
				c-0.551-2.103-0.168-4.026,0.855-4.294C233.64,235.347,234.917,236.834,235.468,238.937z"/>
			<path style="fill:#5A2D51;" d="M291.36,376.874l1.5,3.666c0.296,0.724,0.834,1.319,1.526,1.683
				c2.188,1.153,7.01,3.401,7.907,1.36c0.961-2.187-5.599-4.643-5.599-4.643l-2.169-2.836L291.36,376.874z"/>
			<path style="fill:#FF753A;" d="M210.875,329.667c-2.685-8.227,3.087-16.83,11.622-18.265c13.514-2.273,36.732-5.203,45.55-0.379
				c5.293,2.895,28.647,67.917,28.647,67.917c-0.141,2.378-4.832-0.84-4.832-0.84l-30.258-47.466c0,0-36.4,13.144-45.637,6.133
				C213.285,334.732,211.718,332.248,210.875,329.667z"/>
			<path style="fill:#6D4C78;" d="M260.951,308.887l-40.884-1.339c-12.899,1.477-14.771,19.813-5.06,28.431
				c0.305,0.271,0.625,0.534,0.961,0.788c8.519,6.466,35.573-1.397,40.438-3.096L260.951,308.887z"/>
			<path style="fill:#5D8CA0;" d="M224.006,256.593c2.752,0.349,6.118,2.382,6.728,7.236c0.503,4.007-12.683,28.043-23.893,33.755
				c-9.795,4.99-34.38,1.792-35.987,0.301c-1.429-1.325,0.819-4.959,0.819-4.959c4.913,0.276,28.429-6.628,28.429-6.628
				s7.667-11.258,11.892-19.079C216.949,258.047,218.457,255.89,224.006,256.593z"/>
		</g>
		<g>
			<path style="fill:none;stroke:#9E88B4;stroke-width:2.5448;stroke-miterlimit:10;" d="M150.973,412.292l6.034-81.44
				c0.615-8.304,7.532-14.727,15.858-14.727h5.976c8.326,0,15.243,6.423,15.858,14.727l6.034,81.44"/>
			<path style="fill:none;stroke:#9E88B4;stroke-width:2.5448;stroke-miterlimit:10;" d="M269.053,412.292l6.034-81.44
				c0.615-8.304,7.532-14.727,15.858-14.727h5.976c8.326,0,15.243,6.423,15.858,14.727l6.034,81.44"/>
			<rect x="146.29" y="307.548" style="fill:#6E6E9B;" width="173.252" height="7.559"/>
		</g>
		<rect x="203.08" y="337.426" style="fill:#6E6E9B;" width="46.864" height="7.052"/>
		<polygon style="fill:#E0C695;" points="312.384,289.225 300.004,277.054 314.4,246.784 326.78,258.955 		"/>
		<path style="fill:#FF753A;" d="M300.972,268.869c0.588-1.297,1.813-2.189,3.191-2.549c2.033-0.531,4.463-0.993,4.463-0.236
			c0,0.971-5.411,4.218-5.411,4.218l-1.206,2.537c0,0-1.915-1.393-1.229-3.477C300.837,269.188,300.901,269.024,300.972,268.869z"/>
		<g>
			<rect x="150.423" y="261.36" style="fill:#313E4B;" width="13.381" height="46.188"/>
			<path style="fill:#E0C695;" d="M159.713,298.787c0,1.436-1.164,2.599-2.599,2.599s-2.599-1.164-2.599-2.599
				c0-1.436,1.164-2.599,2.599-2.599S159.713,297.351,159.713,298.787z"/>
		</g>
		<g>
			<rect x="164.99" y="261.36" style="fill:#313E4B;" width="13.381" height="46.188"/>
			<path style="fill:#E0C695;" d="M174.28,298.787c0,1.436-1.164,2.599-2.599,2.599c-1.436,0-2.599-1.164-2.599-2.599
				c0-1.436,1.164-2.599,2.599-2.599C173.116,296.187,174.28,297.351,174.28,298.787z"/>
		</g>
		<g>
			<rect x="179.557" y="261.36" style="fill:#313E4B;" width="13.381" height="46.188"/>
			<path style="fill:#E0C695;" d="M188.847,298.787c0,1.436-1.164,2.599-2.599,2.599c-1.436,0-2.599-1.164-2.599-2.599
				c0-1.436,1.164-2.599,2.599-2.599C187.683,296.187,188.847,297.351,188.847,298.787z"/>
		</g>
		<rect x="223.49" y="306.144" style="fill:#E0C695;" width="42.568" height="1.405"/>
		<rect x="220.544" y="304.739" style="fill:#E0C695;" width="42.568" height="1.405"/>
		<rect x="232.916" y="303.335" style="fill:#E0C695;" width="42.568" height="1.405"/>
		<rect x="225.911" y="301.93" style="fill:#E0C695;" width="42.568" height="1.405"/>
	</g>
	<g>
		<polygon style="fill:#94BECE;" points="533.446,412.9 504.276,412.9 496.661,364.208 541.062,364.208 		"/>
		<polygon style="fill:#E0C695;" points="505.258,364.208 510.765,356.639 518.861,356.639 528.741,350.366 531.123,359.233 
			532.108,364.208 		"/>
		<polygon style="fill:#F1D6AC;" points="510.765,356.639 518.683,360.585 518.861,356.639 		"/>
		<polygon style="fill:#CEB689;" points="531.123,359.233 529.042,364.208 532.108,364.208 		"/>
	</g>
</g>

</svg>
